%TF.GenerationSoftware,KiCad,Pcbnew,(5.1.5)-3*%
%TF.CreationDate,2021-04-14T07:11:28-05:00*%
%TF.ProjectId,Bottom Camera Calibration Card,426f7474-6f6d-4204-9361-6d6572612043,rev?*%
%TF.SameCoordinates,Original*%
%TF.FileFunction,Legend,Top*%
%TF.FilePolarity,Positive*%
%FSLAX46Y46*%
G04 Gerber Fmt 4.6, Leading zero omitted, Abs format (unit mm)*
G04 Created by KiCad (PCBNEW (5.1.5)-3) date 2021-04-14 07:11:28*
%MOMM*%
%LPD*%
G04 APERTURE LIST*
%ADD10C,0.150000*%
%ADD11C,0.120000*%
G04 APERTURE END LIST*
D10*
X145859404Y-144452380D02*
X145287976Y-144452380D01*
X145573690Y-144452380D02*
X145573690Y-143452380D01*
X145478452Y-143595238D01*
X145383214Y-143690476D01*
X145287976Y-143738095D01*
X146478452Y-143452380D02*
X146573690Y-143452380D01*
X146668928Y-143500000D01*
X146716547Y-143547619D01*
X146764166Y-143642857D01*
X146811785Y-143833333D01*
X146811785Y-144071428D01*
X146764166Y-144261904D01*
X146716547Y-144357142D01*
X146668928Y-144404761D01*
X146573690Y-144452380D01*
X146478452Y-144452380D01*
X146383214Y-144404761D01*
X146335595Y-144357142D01*
X146287976Y-144261904D01*
X146240357Y-144071428D01*
X146240357Y-143833333D01*
X146287976Y-143642857D01*
X146335595Y-143547619D01*
X146383214Y-143500000D01*
X146478452Y-143452380D01*
X147907023Y-144452380D02*
X148430833Y-143785714D01*
X147907023Y-143785714D02*
X148430833Y-144452380D01*
X150097500Y-144452380D02*
X149526071Y-144452380D01*
X149811785Y-144452380D02*
X149811785Y-143452380D01*
X149716547Y-143595238D01*
X149621309Y-143690476D01*
X149526071Y-143738095D01*
X150716547Y-143452380D02*
X150811785Y-143452380D01*
X150907023Y-143500000D01*
X150954642Y-143547619D01*
X151002261Y-143642857D01*
X151049880Y-143833333D01*
X151049880Y-144071428D01*
X151002261Y-144261904D01*
X150954642Y-144357142D01*
X150907023Y-144404761D01*
X150811785Y-144452380D01*
X150716547Y-144452380D01*
X150621309Y-144404761D01*
X150573690Y-144357142D01*
X150526071Y-144261904D01*
X150478452Y-144071428D01*
X150478452Y-143833333D01*
X150526071Y-143642857D01*
X150573690Y-143547619D01*
X150621309Y-143500000D01*
X150716547Y-143452380D01*
X152240357Y-144452380D02*
X152240357Y-143785714D01*
X152240357Y-143880952D02*
X152287976Y-143833333D01*
X152383214Y-143785714D01*
X152526071Y-143785714D01*
X152621309Y-143833333D01*
X152668928Y-143928571D01*
X152668928Y-144452380D01*
X152668928Y-143928571D02*
X152716547Y-143833333D01*
X152811785Y-143785714D01*
X152954642Y-143785714D01*
X153049880Y-143833333D01*
X153097500Y-143928571D01*
X153097500Y-144452380D01*
X153573690Y-144452380D02*
X153573690Y-143785714D01*
X153573690Y-143880952D02*
X153621309Y-143833333D01*
X153716547Y-143785714D01*
X153859404Y-143785714D01*
X153954642Y-143833333D01*
X154002261Y-143928571D01*
X154002261Y-144452380D01*
X154002261Y-143928571D02*
X154049880Y-143833333D01*
X154145119Y-143785714D01*
X154287976Y-143785714D01*
X154383214Y-143833333D01*
X154430833Y-143928571D01*
X154430833Y-144452380D01*
D11*
%TO.C,L1*%
X155000000Y-145000000D02*
X145000000Y-155000000D01*
X145000000Y-145000000D02*
X155000000Y-155000000D01*
X150000000Y-145000000D02*
X150000000Y-155000000D01*
X155000000Y-150000000D02*
X145000000Y-150000000D01*
X145000000Y-155000000D02*
X145000000Y-145000000D01*
X155000000Y-155000000D02*
X145000000Y-155000000D01*
X155000000Y-145000000D02*
X155000000Y-155000000D01*
X145000000Y-145000000D02*
X155000000Y-145000000D01*
%TD*%
M02*
