%TF.GenerationSoftware,KiCad,Pcbnew,(5.1.5)-3*%
%TF.CreationDate,2021-04-14T07:11:28-05:00*%
%TF.ProjectId,Bottom Camera Calibration Card,426f7474-6f6d-4204-9361-6d6572612043,rev?*%
%TF.SameCoordinates,Original*%
%TF.FileFunction,Soldermask,Bot*%
%TF.FilePolarity,Negative*%
%FSLAX46Y46*%
G04 Gerber Fmt 4.6, Leading zero omitted, Abs format (unit mm)*
G04 Created by KiCad (PCBNEW (5.1.5)-3) date 2021-04-14 07:11:28*
%MOMM*%
%LPD*%
G04 APERTURE LIST*
%ADD10C,0.100000*%
%ADD11C,0.254000*%
G04 APERTURE END LIST*
D10*
%TO.C,L2*%
G36*
X146000000Y-156800000D02*
G01*
X154000000Y-156800000D01*
X154000000Y-143200000D01*
X146000000Y-143200000D01*
X146000000Y-156800000D01*
G37*
X146000000Y-156800000D02*
X154000000Y-156800000D01*
X154000000Y-143200000D01*
X146000000Y-143200000D01*
X146000000Y-156800000D01*
%TD*%
D11*
G36*
X156195090Y-143019215D02*
G01*
X156382683Y-143076120D01*
X156555570Y-143168530D01*
X156707107Y-143292893D01*
X156831470Y-143444430D01*
X156923880Y-143617317D01*
X156980785Y-143804910D01*
X157000000Y-144000000D01*
X157000000Y-156000000D01*
X156980785Y-156195090D01*
X156923880Y-156382683D01*
X156831470Y-156555570D01*
X156707107Y-156707107D01*
X156555570Y-156831470D01*
X156382683Y-156923880D01*
X156195090Y-156980785D01*
X156000000Y-157000000D01*
X144000000Y-157000000D01*
X143804910Y-156980785D01*
X143617317Y-156923880D01*
X143444430Y-156831470D01*
X143292893Y-156707107D01*
X143168530Y-156555570D01*
X143076120Y-156382683D01*
X143019215Y-156195090D01*
X143000000Y-156000000D01*
X143000000Y-144000000D01*
X143019215Y-143804910D01*
X143076120Y-143617317D01*
X143168530Y-143444430D01*
X143292893Y-143292893D01*
X143444430Y-143168530D01*
X143617317Y-143076120D01*
X143804910Y-143019215D01*
X144000000Y-143000000D01*
X156000000Y-143000000D01*
X156195090Y-143019215D01*
G37*
X156195090Y-143019215D02*
X156382683Y-143076120D01*
X156555570Y-143168530D01*
X156707107Y-143292893D01*
X156831470Y-143444430D01*
X156923880Y-143617317D01*
X156980785Y-143804910D01*
X157000000Y-144000000D01*
X157000000Y-156000000D01*
X156980785Y-156195090D01*
X156923880Y-156382683D01*
X156831470Y-156555570D01*
X156707107Y-156707107D01*
X156555570Y-156831470D01*
X156382683Y-156923880D01*
X156195090Y-156980785D01*
X156000000Y-157000000D01*
X144000000Y-157000000D01*
X143804910Y-156980785D01*
X143617317Y-156923880D01*
X143444430Y-156831470D01*
X143292893Y-156707107D01*
X143168530Y-156555570D01*
X143076120Y-156382683D01*
X143019215Y-156195090D01*
X143000000Y-156000000D01*
X143000000Y-144000000D01*
X143019215Y-143804910D01*
X143076120Y-143617317D01*
X143168530Y-143444430D01*
X143292893Y-143292893D01*
X143444430Y-143168530D01*
X143617317Y-143076120D01*
X143804910Y-143019215D01*
X144000000Y-143000000D01*
X156000000Y-143000000D01*
X156195090Y-143019215D01*
M02*
